<?xml version="1.0" encoding="UTF-8" standalone="no"?>
<svg width="450" height="820" viewBox="0 0 450 820" xmlns="http://www.w3.org/2000/svg">

  <!-- GLOBAL STYLES -->
  <style>
    .box {
      fill: #f8f9fa;
      stroke: #000;
      stroke-width: 1.4;
      rx: 10;
    }
    text {
      font-family: Helvetica, Arial, sans-serif;
      font-size: 12px;
      fill: #000;
    }
    .arrow {
      stroke: #000;
      stroke-width: 1.2;
      marker-end: url(#arrowhead);
    }
  </style>

  <!-- ARROWHEAD DEFINITION -->
  <defs>
    <marker id="arrowhead" markerWidth="7" markerHeight="7" refX="4" refY="3.5" orient="auto">
      <polygon points="0 0, 7 3.5, 0 7" fill="#000" />
    </marker>
  </defs>

  <!-- BLOCKS (PORTRAIT FLOW) -->
  <rect class="box" x="90" y="30" width="250" height="50" />
  <text x="215" y="60" text-anchor="middle">User Speech Input</text>

  <rect class="box" x="90" y="120" width="250" height="60" />
  <text x="215" y="150" text-anchor="middle">Speech Recognition</text>
  <text x="215" y="166" text-anchor="middle">(Audio → Text)</text>

  <rect class="box" x="90" y="230" width="250" height="70" />
  <text x="215" y="260" text-anchor="middle">LLM Router (Gemini)</text>
  <text x="215" y="276" text-anchor="middle">Intent Classification</text>

  <rect class="box" x="40" y="350" width="160" height="60" />
  <text x="120" y="380" text-anchor="middle">General Chatbot</text>

  <rect class="box" x="240" y="350" width="160" height="60" />
  <text x="320" y="380" text-anchor="middle">Realtime Search</text>

  <rect class="box" x="40" y="450" width="160" height="60" />
  <text x="120" y="478" text-anchor="middle">Learning</text>
  <text x="120" y="494" text-anchor="middle">Recommender</text>

  <rect class="box" x="240" y="450" width="160" height="60" />
  <text x="320" y="478" text-anchor="middle">Automation</text>

  <rect class="box" x="140" y="550" width="160" height="60" />
  <text x="220" y="580" text-anchor="middle">IoT Controller</text>

  <rect class="box" x="90" y="680" width="250" height="70" />
  <text x="215" y="715" text-anchor="middle">Output Layer</text>
  <text x="215" y="730" text-anchor="middle">Text / Speech / UI</text>

  <!-- CONNECTING ARROWS -->
  <line class="arrow" x1="215" y1="80" x2="215" y2="120" />
  <line class="arrow" x1="215" y1="190" x2="215" y2="230" />

  <line class="arrow" x1="215" y1="300" x2="120" y2="350" />
  <line class="arrow" x1="215" y1="300" x2="320" y2="350" />

  <line class="arrow" x1="215" y1="300" x2="120" y2="450" />
  <line class="arrow" x1="215" y1="300" x2="320" y2="450" />
  <line class="arrow" x1="215" y1="300" x2="220" y2="550" />

  <line class="arrow" x1="120" y1="410" x2="215" y2="680" />
  <line class="arrow" x1="320" y1="410" x2="215" y2="680" />
  <line class="arrow" x1="120" y1="510" x2="215" y2="680" />
  <line class="arrow" x1="320" y1="510" x2="215" y2="680" />
  <line class="arrow" x1="220" y1="610" x2="215" y2="680" />
</svg>
